# xmcd CD database file
#
# Track frame offsets:
#	150
#	13896
#	26279
#	40921
#	54156
#	66633
#	79498
#	93025
#	106660
#	119417
#	132212
#	144579
#	157379
#	169999
#	181039
#	192114
#	205344
#	217321
#	230899
#	243121
#	255087
#	268998
#	281666
#	294538
#	305736
#
# Disc length: 4212 seconds
#
# Revision: 0
# Processed by: cddbd v1.5.2PL0 Copyright (c) Steve Scherf et al.
# Submitted via: CDex 1.70beta2
#
DISCID=79107219
DTITLE=Eddie "Cleanhead" Vinson - A Proper Introduction to Eddie "Cleanhead" Vinson
DYEAR=2004
DGENRE=Blues
TTITLE0=Cherry Red Blues
TTITLE1=Is You Is Or Is You Ain't My Baby?
TTITLE2=Somebody's Gotta Go
TTITLE3=When My Baby Left Me
TTITLE4=Too Many Women Blues
TTITLE5=Cleanhead Blues
TTITLE6=When A Woman Loves Her Juice
TTITLE7=Kidney Stew Blues
TTITLE8=Old Maid Boogie
TTITLE9=Railroad Porter's Blues
TTITLE10=When I Get Drunk
TTITLE11=Oil Man Blues
TTITLE12=Ever-Ready Blues
TTITLE13=Some Women Do
TTITLE14=Alimony Blues
TTITLE15=I Took The Front Door In
TTITLE16=Ashes On My Pillow
TTITLE17=I'm Gonna Wind Your Clock
TTITLE18=Somebody Done Stole My Cherry Red
TTITLE19=Eddie's Bounce
TTITLE20=Feathered Mama
TTITLE21=Peas and Rice
TTITLE22=Queen Bee Blues
TTITLE23=Lonesome Train
TTITLE24=Person to Person
EXTD=YEAR: 2004
EXTT0=
EXTT1=
EXTT2=
EXTT3=
EXTT4=
EXTT5=
EXTT6=
EXTT7=
EXTT8=
EXTT9=
EXTT10=
EXTT11=
EXTT12=
EXTT13=
EXTT14=
EXTT15=
EXTT16=
EXTT17=
EXTT18=
EXTT19=
EXTT20=
EXTT21=
EXTT22=
EXTT23=
EXTT24=
PLAYORDER=
